<?xml version="1.0" ?><!DOCTYPE svg  PUBLIC '-//W3C//DTD SVG 1.1//EN'  'http://www.w3.org/Graphics/SVG/1.1/DTD/svg11.dtd'><svg height="8.4666mm" style="shape-rendering:geometricPrecision; text-rendering:geometricPrecision; image-rendering:optimizeQuality; fill-rule:evenodd; clip-rule:evenodd" version="1.1" viewBox="0 0 847 847" width="8.4666mm" xml:space="preserve" xmlns="http://www.w3.org/2000/svg" xmlns:xlink="http://www.w3.org/1999/xlink"><defs><style type="text/css">
   <![CDATA[
    .fil1 {fill:#FEFEFE}
    .fil2 {fill:#FEFEFE}
    .fil0 {fill:#98C425}
   ]]>
  </style></defs><g id="Layer_x0020_1"><circle class="fil0" cx="423" cy="423" r="342"/><g id="_1965096675696"><path class="fil1" d="M601 326l0 0c10,0 20,4 27,11 6,7 11,16 11,27l0 120c0,10 -5,20 -11,27l0 0 -1 0c-6,7 -16,11 -26,11l0 0c-10,0 -20,-4 -27,-11l0 -1c-7,-7 -11,-16 -11,-26l0 -120c0,-11 5,-20 11,-27 7,-7 17,-11 27,-11z"/><path class="fil1" d="M246 326l0 0c10,0 19,4 26,11 7,7 11,16 11,27l0 120c0,10 -4,20 -11,27l0 0c-7,7 -16,11 -26,11l0 0c-11,0 -20,-4 -27,-11 -7,-7 -11,-16 -11,-27l0 -120c0,-11 4,-20 11,-27 7,-7 16,-11 27,-11z"/></g><path class="fil1" d="M558 336l0 1 0 191c0,12 -5,23 -13,31l0 0 0 0c-7,7 -18,12 -30,12l-3 0 0 64c0,10 -5,19 -11,26l0 0 -1 0c-6,7 -16,11 -26,11l0 0c-10,0 -20,-4 -27,-11l0 0c-7,-7 -11,-16 -11,-26l0 -64 -26 0 0 64c0,10 -4,20 -11,26 -7,7 -16,11 -26,11l0 0c-11,0 -20,-4 -27,-11l0 0 0 0c-7,-7 -11,-16 -11,-26l0 -64 -3 0c-12,0 -23,-5 -31,-12l0 -1c-8,-8 -12,-18 -12,-30l0 -192c0,-5 4,-10 10,-10l0 0 249 0c6,0 10,5 10,10z"/><path class="fil2" d="M423 186l0 0c18,0 36,4 52,10l21 -27c3,-5 9,-5 14,-2 4,3 5,10 2,14l-19 24c7,5 14,10 21,16 24,22 40,52 43,87 1,5 -3,10 -8,10l-1 0 0 1 -249 0c-5,0 -10,-5 -10,-10 0,-1 0,-2 0,-2 4,-34 20,-64 44,-86 5,-4 10,-8 15,-12l-21 -28c-4,-4 -3,-11 1,-14 5,-3 11,-3 14,2l24 30c17,-8 37,-13 57,-13zm-43 57c9,0 16,7 16,16 0,9 -7,16 -16,16 -9,0 -17,-7 -17,-16 0,-9 8,-16 17,-16zm87 0c9,0 16,7 16,16 0,9 -7,16 -16,16 -9,0 -16,-7 -16,-16 0,-9 7,-16 16,-16z"/></g></svg>